<svg width="64" height="772" viewBox="0 0 64 772" fill="none" xmlns="http://www.w3.org/2000/svg">
<g filter="url(#filter0_d_1729_27648)">
<rect width="60" height="768" transform="translate(2)" fill="white"/>
<rect width="60" height="60" transform="translate(2)" fill="white"/>
<rect x="17" y="6" width="30" height="30" rx="15" fill="#F0303F"/>
<path fill-rule="evenodd" clip-rule="evenodd" d="M24.8939 24.9205H21.7356V17.1478H24.8939C26.8163 17.1478 27.9148 17.966 27.9148 19.3296C27.9148 20.0796 27.4342 20.5569 26.7476 20.8296C27.9148 21.1023 28.4641 21.7842 28.4641 22.6705C28.3954 24.1023 27.1596 24.9205 24.8939 24.9205ZM23.8643 21.7161H25.1002C25.8555 21.7161 26.1987 21.9888 26.336 22.3979C26.336 22.9433 25.8555 23.2161 25.0315 23.2161H23.8643V21.7161ZM24.8942 18.8523C25.5122 18.8523 25.9241 19.0568 25.9241 19.466C25.9241 19.875 25.6495 20.0796 25.1002 20.1478H23.8643V18.8523H24.8942Z" fill="white"/>
<path d="M32.103 24.9205H30.0432V17.1478H32.103V24.9205Z" fill="white"/>
<path fill-rule="evenodd" clip-rule="evenodd" d="M39.9987 24.9205L39.5868 23.625H36.2225L35.7419 24.8523H33.4761L36.4284 17.0796H39.3121L42.2644 24.8523L39.9987 24.9205ZM37.8698 18.8545L37.8705 18.8523L38.8317 21.8523H36.772L37.5959 19.6023C37.7327 19.2626 37.8013 19.0583 37.8698 18.8545Z" fill="white"/>
<path d="M23.4113 40.8H14.5953V43.392H17.6353V52H20.3553V43.392H23.4113V40.8ZM33.0527 40.8L30.4927 44.64L27.9327 40.8H24.8447V52H27.5647V44.608L30.3647 48.88H30.6207L33.4207 44.608V52H36.1407V40.8H33.0527ZM43.7858 52.208C46.5378 52.208 48.6338 50.48 49.2418 48.048H46.3298C45.8818 49.024 44.9698 49.616 43.7858 49.616C41.9298 49.616 40.7298 48.272 40.7298 46.4C40.7298 44.528 41.9298 43.184 43.7858 43.184C44.9698 43.184 45.8818 43.776 46.3298 44.752H49.2418C48.6338 42.32 46.5378 40.592 43.7858 40.592C40.4258 40.592 37.9778 43.104 37.9778 46.4C37.9778 49.696 40.4258 52.208 43.7858 52.208Z" fill="#2B2D35"/>
<rect width="60" height="40" transform="translate(2 80)" fill="#F4F6F9"/>
<g clip-path="url(#clip0_1729_27648)">
<path d="M29 89V91H35V89H37V91H41C41.2652 91 41.5196 91.1054 41.7071 91.2929C41.8946 91.4804 42 91.7348 42 92V108C42 108.265 41.8946 108.52 41.7071 108.707C41.5196 108.895 41.2652 109 41 109H23C22.7348 109 22.4804 108.895 22.2929 108.707C22.1054 108.52 22 108.265 22 108V92C22 91.7348 22.1054 91.4804 22.2929 91.2929C22.4804 91.1054 22.7348 91 23 91H27V89H29ZM40 98H24V107H40V98ZM35.036 99.136L36.45 100.55L31.5 105.5L27.964 101.964L29.38 100.55L31.501 102.672L35.037 99.136H35.036ZM27 93H24V96H40V93H37V94H35V93H29V94H27V93Z" fill="#3C4049"/>
</g>
<rect x="2" y="80" width="4" height="40" fill="#F0303F"/>
<rect width="60" height="40" transform="translate(2 124)" fill="white"/>
<g clip-path="url(#clip1_1729_27648)">
<path d="M40.005 134C41.107 134 42 134.898 42 135.99V152.01C42 153.109 41.107 154 40.005 154H24V150H22V148H24V145H22V143H24V140H22V138H24V134H40.005ZM28 136H26V152H28V136ZM40 136H30V152H40V136Z" fill="#B8C4DB"/>
</g>
<rect width="60" height="40" transform="translate(2 168)" fill="white"/>
<g clip-path="url(#clip2_1729_27648)">
<path d="M32 190V192C30.4087 192 28.8826 192.632 27.7574 193.757C26.6321 194.883 26 196.409 26 198H24C24 195.878 24.8429 193.843 26.3431 192.343C27.8434 190.843 29.8783 190 32 190ZM32 189C28.685 189 26 186.315 26 183C26 179.685 28.685 177 32 177C35.315 177 38 179.685 38 183C38 186.315 35.315 189 32 189ZM32 187C34.21 187 36 185.21 36 183C36 180.79 34.21 179 32 179C29.79 179 28 180.79 28 183C28 185.21 29.79 187 32 187Z" fill="#B8C4DB"/>
<path d="M4.31998 133.293C1.05957 147.111 -0.664398 161.523 -0.664398 176.335C-0.664398 232.512 24.1476 282.887 63.4143 317.108C39.7263 331.425 11.9609 339.665 -17.7364 339.665H-123.591C-210.34 339.665 -280.658 269.343 -280.658 182.599C-280.658 173.442 -275.861 165.036 -267.449 161.421C-242.111 150.541 -179.345 129.672 -70.6628 129.672C-42.6681 129.672 -17.7201 131.057 4.3212 133.297L4.31998 133.293Z" fill="#B8C4DB"/>
<path fill-rule="evenodd" clip-rule="evenodd" d="M43 194.5C43 196.985 40.9852 199 38.5 199C36.0148 199 34 196.985 34 194.5C34 192.015 36.0148 190 38.5 190C40.9852 190 43 192.015 43 194.5ZM39.891 195.062H41.4474C41.2186 196.268 40.2682 197.219 39.0625 197.447V195.891C39.4385 195.739 39.7388 195.438 39.891 195.062ZM39.891 193.938H41.4474C41.1841 192.549 39.9646 191.5 38.5 191.5C37.0354 191.5 35.8159 192.549 35.5526 193.938H37.109C37.3316 193.388 37.8706 193 38.5 193C39.1294 193 39.6684 193.388 39.891 193.938ZM37.109 195.062H35.5526C35.7814 196.268 36.7318 197.219 37.9375 197.447V195.891C37.5615 195.739 37.2612 195.438 37.109 195.062Z" fill="#B8C4DB"/>
</g>
<rect width="60" height="40" transform="translate(2 212)" fill="white"/>
<g clip-path="url(#clip3_1729_27648)">
<path d="M28.965 238C28.8461 238.834 28.4302 239.598 27.7937 240.15C27.1571 240.702 26.3427 241.006 25.5 241.006C24.6573 241.006 23.8429 240.702 23.2063 240.15C22.5698 239.598 22.1539 238.834 22.035 238H21V226C21 225.735 21.1054 225.48 21.2929 225.293C21.4804 225.105 21.7348 225 22 225H36C36.2652 225 36.5196 225.105 36.7071 225.293C36.8946 225.48 37 225.735 37 226V228H40L43 232.056V238H40.965C40.8461 238.834 40.4302 239.598 39.7937 240.15C39.1571 240.702 38.3427 241.006 37.5 241.006C36.6573 241.006 35.8429 240.702 35.2063 240.15C34.5698 239.598 34.1539 238.834 34.035 238H28.965ZM35 227H23V235.05C23.3946 234.647 23.8806 234.346 24.4168 234.171C24.9529 233.997 25.5233 233.954 26.0794 234.047C26.6355 234.141 27.1608 234.367 27.6106 234.707C28.0604 235.047 28.4215 235.49 28.663 236H34.337C34.505 235.647 34.73 235.326 35 235.05V227ZM37 233H41V232.715L38.992 230H37V233ZM37.5 239C37.898 239 38.2796 238.842 38.561 238.561C38.8424 238.279 39.0005 237.897 39.0005 237.5C39.0005 237.102 38.8424 236.72 38.561 236.438C38.2796 236.157 37.898 235.999 37.5 235.999C37.102 235.999 36.7204 236.157 36.439 236.438C36.1576 236.72 35.9995 237.102 35.9995 237.5C35.9995 237.897 36.1576 238.279 36.439 238.561C36.7204 238.842 37.102 239 37.5 239ZM27 237.5C27 237.303 26.9612 237.108 26.8858 236.926C26.8104 236.744 26.6999 236.579 26.5607 236.439C26.4214 236.3 26.256 236.19 26.074 236.114C25.892 236.039 25.697 236 25.5 236C25.303 236 25.108 236.039 24.926 236.114C24.744 236.19 24.5786 236.3 24.4393 236.439C24.3001 236.579 24.1896 236.744 24.1142 236.926C24.0388 237.108 24 237.303 24 237.5C24 237.898 24.158 238.279 24.4393 238.561C24.7206 238.842 25.1022 239 25.5 239C25.8978 239 26.2794 238.842 26.5607 238.561C26.842 238.279 27 237.898 27 237.5Z" fill="#B8C4DB"/>
</g>
<rect width="60" height="40" transform="translate(2 256)" fill="white"/>
<g clip-path="url(#clip4_1729_27648)">
<path d="M32 278V280C30.4087 280 28.8826 280.632 27.7574 281.757C26.6321 282.883 26 284.409 26 286H24C24 283.878 24.8429 281.843 26.3431 280.343C27.8434 278.843 29.8783 278 32 278ZM32 277C28.685 277 26 274.315 26 271C26 267.685 28.685 265 32 265C35.315 265 38 267.685 38 271C38 274.315 35.315 277 32 277ZM32 275C34.21 275 36 273.21 36 271C36 268.79 34.21 267 32 267C29.79 267 28 268.79 28 271C28 273.21 29.79 275 32 275ZM41 281H42V286H34V281H35V280C35 279.204 35.3161 278.441 35.8787 277.879C36.4413 277.316 37.2044 277 38 277C38.7956 277 39.5587 277.316 40.1213 277.879C40.6839 278.441 41 279.204 41 280V281ZM39 281V280C39 279.735 38.8946 279.48 38.7071 279.293C38.5196 279.105 38.2652 279 38 279C37.7348 279 37.4804 279.105 37.2929 279.293C37.1054 279.48 37 279.735 37 280V281H39Z" fill="#B8C4DB"/>
</g>
<rect width="60" height="40" transform="translate(2 300)" fill="white"/>
<g clip-path="url(#clip5_1729_27648)">
<path d="M27 313V310C27 309.735 27.1054 309.48 27.2929 309.293C27.4804 309.105 27.7348 309 28 309H36C36.2652 309 36.5196 309.105 36.7071 309.293C36.8946 309.48 37 309.735 37 310V313H41C41.2652 313 41.5196 313.105 41.7071 313.293C41.8946 313.48 42 313.735 42 314V328C42 328.265 41.8946 328.52 41.7071 328.707C41.5196 328.895 41.2652 329 41 329H23C22.7348 329 22.4804 328.895 22.2929 328.707C22.1054 328.52 22 328.265 22 328V314C22 313.735 22.1054 313.48 22.2929 313.293C22.4804 313.105 22.7348 313 23 313H27ZM24 324V327H40V324H24ZM24 322H40V315H24V322ZM29 311V313H35V311H29ZM31 319H33V321H31V319Z" fill="#B8C4DB"/>
</g>
<rect width="60" height="40" transform="translate(2 344)" fill="white"/>
<g clip-path="url(#clip6_1729_27648)">
<path d="M30 366.676V366.614C30 364.106 32.016 361.996 34.753 361.381C34.389 359.079 31.959 357.2 28.9 357.2C25.58 357.2 23 359.413 23 361.98C23 362.949 23.36 363.88 24.04 364.678C24.072 364.716 24.123 364.772 24.192 364.843C24.7799 365.447 25.1349 366.24 25.194 367.081C25.9081 366.668 26.742 366.512 27.557 366.639C27.723 366.665 27.859 366.685 27.962 366.699C28.6391 366.787 29.3252 366.779 30 366.675V366.676ZM30.457 368.627C29.5473 368.783 28.6192 368.802 27.704 368.682C27.5524 368.661 27.4011 368.639 27.25 368.615C26.8763 368.557 26.494 368.632 26.17 368.827L24.266 369.975C24.1194 370.065 23.9476 370.106 23.776 370.092C23.6722 370.084 23.571 370.056 23.4781 370.009C23.3852 369.962 23.3026 369.897 23.2348 369.818C23.1671 369.739 23.1156 369.647 23.0834 369.548C23.0512 369.449 23.0388 369.345 23.047 369.241L23.197 367.46C23.2157 367.237 23.1862 367.012 23.1104 366.801C23.0347 366.59 22.9145 366.397 22.758 366.237C22.6749 366.152 22.5945 366.065 22.517 365.975C21.563 364.855 21 363.473 21 361.979C21 358.235 24.537 355.2 28.9 355.2C32.96 355.2 36.303 357.827 36.75 361.208C40.122 361.361 42.8 363.723 42.8 366.614C42.8 367.807 42.344 368.91 41.571 369.804C41.52 369.864 41.455 369.934 41.376 370.014C41.2496 370.141 41.1523 370.294 41.0909 370.463C41.0294 370.631 41.0052 370.811 41.02 370.99L41.141 372.413C41.1471 372.496 41.1367 372.58 41.1103 372.66C41.084 372.739 41.0422 372.812 40.9873 372.876C40.9325 372.939 40.8657 372.99 40.7909 373.028C40.716 373.065 40.6345 373.087 40.551 373.093C40.4121 373.104 40.2731 373.071 40.154 372.999L38.611 372.082C38.348 371.926 38.0391 371.867 37.737 371.913C37.59 371.936 37.467 371.953 37.369 371.966C37.053 372.006 36.729 372.028 36.4 372.028C33.706 372.028 31.402 370.62 30.457 368.627ZM37.434 369.937C37.9983 369.85 38.5755 369.91 39.11 370.111C39.2502 369.544 39.5408 369.025 39.951 368.609C40.001 368.559 40.038 368.519 40.057 368.497C40.546 367.932 40.8 367.284 40.8 366.614C40.8 364.81 38.897 363.2 36.4 363.2C33.903 363.2 32 364.81 32 366.614C32 368.418 33.903 370.028 36.4 370.028C36.641 370.028 36.88 370.012 37.114 369.982C37.194 369.972 37.302 369.957 37.434 369.936V369.937Z" fill="#B8C4DB"/>
</g>
<rect width="60" height="40" transform="translate(2 388)" fill="white"/>
<g clip-path="url(#clip7_1729_27648)">
<path d="M32.866 399L42.392 415.5C42.4798 415.652 42.526 415.824 42.526 416C42.526 416.175 42.4798 416.348 42.392 416.5C42.3042 416.652 42.178 416.778 42.026 416.866C41.874 416.954 41.7015 417 41.526 417H22.474C22.2985 417 22.126 416.954 21.974 416.866C21.822 416.778 21.6958 416.652 21.608 416.5C21.5202 416.348 21.474 416.175 21.474 416C21.474 415.824 21.5202 415.652 21.608 415.5L31.134 399C31.2218 398.848 31.348 398.722 31.5 398.634C31.652 398.546 31.8245 398.5 32 398.5C32.1755 398.5 32.348 398.546 32.5 398.634C32.652 398.722 32.7782 398.848 32.866 399ZM24.206 415H39.794L32 401.5L24.206 415ZM31 412H33V414H31V412ZM31 405H33V410H31V405Z" fill="#B8C4DB"/>
</g>
<rect width="60" height="40" transform="translate(2 728)" fill="white"/>
<g clip-path="url(#clip8_1729_27648)">
<path d="M32 747V744L36 748L32 752V749H28V747H32ZM32 738C37.52 738 42 742.48 42 748C42 753.52 37.52 758 32 758C26.48 758 22 753.52 22 748C22 742.48 26.48 738 32 738ZM32 756C36.42 756 40 752.42 40 748C40 743.58 36.42 740 32 740C27.58 740 24 743.58 24 748C24 752.42 27.58 756 32 756Z" fill="#B8C4DB"/>
</g>
</g>
<defs>
<filter id="filter0_d_1729_27648" x="0" y="0" width="64" height="772" filterUnits="userSpaceOnUse" color-interpolation-filters="sRGB">
<feFlood flood-opacity="0" result="BackgroundImageFix"/>
<feColorMatrix in="SourceAlpha" type="matrix" values="0 0 0 0 0 0 0 0 0 0 0 0 0 0 0 0 0 0 127 0" result="hardAlpha"/>
<feOffset dy="2"/>
<feGaussianBlur stdDeviation="1"/>
<feComposite in2="hardAlpha" operator="out"/>
<feColorMatrix type="matrix" values="0 0 0 0 0.133333 0 0 0 0 0.243137 0 0 0 0 0.305882 0 0 0 0.15 0"/>
<feBlend mode="normal" in2="BackgroundImageFix" result="effect1_dropShadow_1729_27648"/>
<feBlend mode="normal" in="SourceGraphic" in2="effect1_dropShadow_1729_27648" result="shape"/>
</filter>
<clipPath id="clip0_1729_27648">
<rect width="24" height="24" fill="white" transform="translate(20 88)"/>
</clipPath>
<clipPath id="clip1_1729_27648">
<rect width="24" height="24" fill="white" transform="translate(20 132)"/>
</clipPath>
<clipPath id="clip2_1729_27648">
<rect width="24" height="24" fill="white" transform="translate(20 176)"/>
</clipPath>
<clipPath id="clip3_1729_27648">
<rect width="24" height="24" fill="white" transform="translate(20 220)"/>
</clipPath>
<clipPath id="clip4_1729_27648">
<rect width="24" height="24" fill="white" transform="translate(20 264)"/>
</clipPath>
<clipPath id="clip5_1729_27648">
<rect width="24" height="24" fill="white" transform="translate(20 308)"/>
</clipPath>
<clipPath id="clip6_1729_27648">
<rect width="24" height="24" fill="white" transform="translate(20 352)"/>
</clipPath>
<clipPath id="clip7_1729_27648">
<rect width="24" height="24" fill="white" transform="translate(20 396)"/>
</clipPath>
<clipPath id="clip8_1729_27648">
<rect width="24" height="24" fill="white" transform="translate(20 736)"/>
</clipPath>
</defs>
</svg>
